<svg width="17" height="18" viewBox="0 0 17 18" fill="none" xmlns="http://www.w3.org/2000/svg">
<path d="M8.32118 16.5738L8.20658 16.5508L8.09198 16.5738C6.24037 16.9441 4.49232 16.7382 3.21536 15.7165C1.94513 14.7004 1 12.7636 1 9.35582C1 5.87082 1.78526 4.45499 2.81949 3.93788C3.36046 3.6674 4.06004 3.58868 4.9502 3.69139C5.83931 3.79398 6.86522 4.07101 8.02178 4.45654L8.22489 4.52422L8.42356 4.44473C10.357 3.67132 12.0949 3.37506 13.3157 3.94475C14.4604 4.47895 15.4132 5.92257 15.4132 9.35582C15.4132 12.7636 14.468 14.7004 13.1978 15.7165C11.9208 16.7382 10.1728 16.9441 8.32118 16.5738Z" stroke="#E5A341" stroke-width="1.7"/>
<path d="M8.20658 4.29169C8.20658 2.34397 7.42749 1.56488 5.86931 1.56488" stroke="#E5A341" stroke-width="1.7" stroke-linecap="round" stroke-linejoin="round"/>
</svg>
