<svg width="18" height="18" viewBox="0 0 18 18" fill="none" xmlns="http://www.w3.org/2000/svg">
<path d="M4.69199 9.75995C3.48532 9.75995 1.07198 10.4839 1.07198 13.38C1.07198 16.276 3.48532 17 4.69199 17H13.38C14.5867 17 17 16.276 17 13.38C17 10.4839 14.5867 9.75995 13.38 9.75995" stroke="#E5A341" stroke-width="1.7" stroke-linecap="round" stroke-linejoin="round"/>
<path d="M9.03599 9.03602C10.2356 9.03602 11.208 8.06362 11.208 6.86402C11.208 5.66446 10.2356 4.69202 9.03599 4.69202C7.83639 4.69202 6.86399 5.66446 6.86399 6.86402C6.86399 8.06362 7.83639 9.03602 9.03599 9.03602Z" stroke="#E5A341" stroke-width="1.7" stroke-linecap="round" stroke-linejoin="round"/>
<path d="M14.104 6.86401H14.828" stroke="#E5A341" stroke-width="1.7" stroke-linecap="round" stroke-linejoin="round"/>
<path d="M9.03599 1.79596V1.07196" stroke="#E5A341" stroke-width="1.7" stroke-linecap="round" stroke-linejoin="round"/>
<path d="M13.742 2.88196L13.018 3.60596" stroke="#E5A341" stroke-width="1.7" stroke-linecap="round" stroke-linejoin="round"/>
<path d="M4.32999 2.88196L5.05399 3.60596" stroke="#E5A341" stroke-width="1.7" stroke-linecap="round" stroke-linejoin="round"/>
<path d="M3.24399 6.86401H3.96799" stroke="#E5A341" stroke-width="1.7" stroke-linecap="round" stroke-linejoin="round"/>
</svg>
